<svg width="55" height="49" viewBox="0 0 55 49" fill="none" xmlns="http://www.w3.org/2000/svg">
<rect width="55" height="49" fill="black"/>
<g id="Home" clip-path="url(#clip0_0_1)">
<rect width="1440" height="2203" transform="translate(-119 -590)" fill="#1F1F1F"/>
<g id="Rectangle 1" filter="url(#filter0_d_0_1)">
<rect x="-60" y="-453" width="1323" height="588" rx="50" fill="#262626"/>
</g>
<g id="Group 30">
<g id="Group 7">
<path id="Rectangle 17" d="M-26 23.5C-26 -5.49495 -2.49495 -29 26.5 -29C55.4949 -29 79 -5.49495 79 23.5C79 52.4949 55.4949 76 26.5 76C-2.49495 76 -26 52.4949 -26 23.5Z" fill="#FECB03"/>
</g>
<g id="credit-card-regular 1">
<path id="Vector" d="M50.4071 3.0625H4.59288C2.05295 3.0625 0 5.12012 0 7.65625V41.3438C0 43.8799 2.05295 45.9375 4.59288 45.9375H50.4071C52.9471 45.9375 55 43.8799 55 41.3438V7.65625C55 5.12012 52.9471 3.0625 50.4071 3.0625ZM5.1658 7.65625H49.8342C50.1493 7.65625 50.4071 7.91465 50.4071 8.23047V12.25H4.59288V8.23047C4.59288 7.91465 4.85069 7.65625 5.1658 7.65625ZM49.8342 41.3438H5.1658C4.85069 41.3438 4.59288 41.0854 4.59288 40.7695V24.5H50.4071V40.7695C50.4071 41.0854 50.1493 41.3438 49.8342 41.3438ZM18.3333 31.7734V35.6016C18.3333 36.2332 17.8177 36.75 17.1875 36.75H10.3125C9.68229 36.75 9.16667 36.2332 9.16667 35.6016V31.7734C9.16667 31.1418 9.68229 30.625 10.3125 30.625H17.1875C17.8177 30.625 18.3333 31.1418 18.3333 31.7734ZM36.6667 31.7734V35.6016C36.6667 36.2332 36.151 36.75 35.5208 36.75H22.5347C21.9045 36.75 21.3889 36.2332 21.3889 35.6016V31.7734C21.3889 31.1418 21.9045 30.625 22.5347 30.625H35.5208C36.151 30.625 36.6667 31.1418 36.6667 31.7734Z" fill="#262626"/>
</g>
</g>
</g>
<defs>
<filter id="filter0_d_0_1" x="-64" y="-453" width="1331" height="596" filterUnits="userSpaceOnUse" color-interpolation-filters="sRGB">
<feFlood flood-opacity="0" result="BackgroundImageFix"/>
<feColorMatrix in="SourceAlpha" type="matrix" values="0 0 0 0 0 0 0 0 0 0 0 0 0 0 0 0 0 0 127 0" result="hardAlpha"/>
<feOffset dy="4"/>
<feGaussianBlur stdDeviation="2"/>
<feComposite in2="hardAlpha" operator="out"/>
<feColorMatrix type="matrix" values="0 0 0 0 0 0 0 0 0 0 0 0 0 0 0 0 0 0 0.25 0"/>
<feBlend mode="normal" in2="BackgroundImageFix" result="effect1_dropShadow_0_1"/>
<feBlend mode="normal" in="SourceGraphic" in2="effect1_dropShadow_0_1" result="shape"/>
</filter>
<clipPath id="clip0_0_1">
<rect width="1440" height="2203" fill="white" transform="translate(-119 -590)"/>
</clipPath>
</defs>
</svg>
